<?xml version='1.0' encoding='utf-8'?>
<svg xmlns="http://www.w3.org/2000/svg" width="880" height="530" viewBox="0 0 880 530"><rect width="880" height="530" rx="24" fill="#0c1822" /><text x="32" y="46" font-family="Segoe UI, Arial, sans-serif" fill="#edf7fa" font-size="26" font-weight="700">Meet the mecanum rover</text><text x="32" y="74" font-family="Segoe UI, Arial, sans-serif" fill="#a6bbc6" font-size="14">Illustrated layout · wheel labels match the firmware</text><path d="M410 135l30-35 30 35" fill="none" stroke="#55dbc0" stroke-width="5" /><text x="492" y="121" font-family="Segoe UI, Arial, sans-serif" fill="#edf7fa" font-size="18" font-weight="600">FRONT</text><rect x="320" y="174" width="240" height="239" rx="36" fill="#173b3a" stroke="#55dbc0" stroke-width="3" /><rect x="365" y="146" width="150" height="58" rx="16" fill="#264b55" /><circle cx="402" cy="175" r="17" fill="#10212d" stroke="#9eafb8" stroke-width="3" /><circle cx="476" cy="175" r="17" fill="#10212d" stroke="#9eafb8" stroke-width="3" /><text x="440" y="280" text-anchor="middle" font-family="Segoe UI, Arial, sans-serif" fill="#edf7fa" font-size="18" font-weight="600">Pico W</text><text x="440" y="307" text-anchor="middle" font-family="Segoe UI, Arial, sans-serif" fill="#a6bbc6" font-size="14">Phone dashboard</text><text x="440" y="333" text-anchor="middle" font-family="Segoe UI, Arial, sans-serif" fill="#a6bbc6" font-size="14">over your Wi-Fi</text><rect x="275" y="204" width="45" height="66" rx="12" fill="#243340" stroke="#a6bbc6" stroke-width="2" /><path d="M280 216l35 12" stroke="#55dbc0" stroke-width="5" /><path d="M280 230l35 12" stroke="#55dbc0" stroke-width="5" /><path d="M280 244l35 12" stroke="#55dbc0" stroke-width="5" /><path d="M280 258l35 12" stroke="#55dbc0" stroke-width="5" /><text x="245" y="229" text-anchor="end" font-family="Segoe UI, Arial, sans-serif" fill="#edf7fa" font-size="18" font-weight="600">M1</text><text x="245" y="252" text-anchor="end" font-family="Segoe UI, Arial, sans-serif" fill="#a6bbc6" font-size="14">Front-left</text><rect x="275" y="338" width="45" height="66" rx="12" fill="#243340" stroke="#a6bbc6" stroke-width="2" /><path d="M280 350l35 12" stroke="#55dbc0" stroke-width="5" /><path d="M280 364l35 12" stroke="#55dbc0" stroke-width="5" /><path d="M280 378l35 12" stroke="#55dbc0" stroke-width="5" /><path d="M280 392l35 12" stroke="#55dbc0" stroke-width="5" /><text x="245" y="363" text-anchor="end" font-family="Segoe UI, Arial, sans-serif" fill="#edf7fa" font-size="18" font-weight="600">M2</text><text x="245" y="386" text-anchor="end" font-family="Segoe UI, Arial, sans-serif" fill="#a6bbc6" font-size="14">Rear-left</text><rect x="560" y="204" width="45" height="66" rx="12" fill="#243340" stroke="#a6bbc6" stroke-width="2" /><path d="M565 216l35 12" stroke="#55dbc0" stroke-width="5" /><path d="M565 230l35 12" stroke="#55dbc0" stroke-width="5" /><path d="M565 244l35 12" stroke="#55dbc0" stroke-width="5" /><path d="M565 258l35 12" stroke="#55dbc0" stroke-width="5" /><text x="635" y="229" text-anchor="start" font-family="Segoe UI, Arial, sans-serif" fill="#edf7fa" font-size="18" font-weight="600">M3</text><text x="635" y="252" text-anchor="start" font-family="Segoe UI, Arial, sans-serif" fill="#a6bbc6" font-size="14">Front-right</text><rect x="560" y="338" width="45" height="66" rx="12" fill="#243340" stroke="#a6bbc6" stroke-width="2" /><path d="M565 350l35 12" stroke="#55dbc0" stroke-width="5" /><path d="M565 364l35 12" stroke="#55dbc0" stroke-width="5" /><path d="M565 378l35 12" stroke="#55dbc0" stroke-width="5" /><path d="M565 392l35 12" stroke="#55dbc0" stroke-width="5" /><text x="635" y="363" text-anchor="start" font-family="Segoe UI, Arial, sans-serif" fill="#edf7fa" font-size="18" font-weight="600">M4</text><text x="635" y="386" text-anchor="start" font-family="Segoe UI, Arial, sans-serif" fill="#a6bbc6" font-size="14">Rear-right</text><text x="440" y="454" text-anchor="middle" font-family="Segoe UI, Arial, sans-serif" fill="#edf7fa" font-size="18" font-weight="600">Forward · reverse · sideways · diagonals · rotation</text><text x="440" y="488" text-anchor="middle" font-family="Segoe UI, Arial, sans-serif" fill="#a6bbc6" font-size="14">Ultrasonic sensing covers the front; the rear and corners remain unsensed.</text></svg>